<?xml version="1.0" standalone="no"?>
<!DOCTYPE svg PUBLIC "-//W3C//DTD SVG 20010904//EN"
 "http://www.w3.org/TR/2001/REC-SVG-20010904/DTD/svg10.dtd">
<svg version="1.0" xmlns="http://www.w3.org/2000/svg"
 width="700.000000pt" height="700.000000pt" viewBox="0 0 700.000000 700.000000"
 preserveAspectRatio="xMidYMid meet">
<metadata>
Created by potrace 1.11, written by Peter Selinger 2001-2013
</metadata>
<g transform="translate(0.000000,700.000000) scale(0.100000,-0.100000)"
fill="#000000" stroke="none">
<path d="M3278 6995 c-1 -1 -42 -5 -89 -9 -47 -4 -95 -8 -105 -10 -10 -2 -46
-7 -79 -11 -32 -4 -68 -9 -80 -11 -173 -33 -164 -32 -273 -58 -156 -39 -389
-116 -476 -157 -22 -11 -43 -19 -47 -19 -15 0 -267 -125 -358 -178 -261 -151
-438 -282 -661 -490 -538 -502 -905 -1161 -1044 -1877 -48 -249 -61 -388 -61
-680 0 -196 6 -309 20 -412 10 -67 14 -99 20 -148 4 -27 10 -66 15 -85 5 -19
12 -48 14 -65 17 -93 52 -225 97 -365 164 -503 439 -960 814 -1348 69 -71 164
-163 212 -203 47 -41 94 -81 102 -89 46 -43 401 -290 417 -290 2 0 23 -12 45
-26 59 -37 278 -145 389 -192 257 -109 611 -206 861 -238 30 -3 65 -8 79 -10
182 -26 651 -25 840 2 441 64 775 166 1130 344 351 176 622 371 901 650 196
196 312 335 442 530 31 47 61 90 67 97 5 7 10 14 10 17 0 2 18 34 40 71 190
312 353 752 424 1145 14 81 17 101 32 215 3 27 8 61 10 75 9 49 11 526 4 605
-16 169 -22 220 -25 225 -2 3 -6 30 -10 60 -7 59 -60 309 -74 350 -5 14 -17
52 -26 85 -57 202 -197 536 -293 700 -99 170 -305 475 -341 505 -3 3 -38 43
-78 90 -125 148 -367 377 -508 481 -33 24 -62 46 -65 49 -12 13 -144 102 -240
162 -156 97 -357 198 -555 277 -11 5 -33 14 -50 21 -139 56 -511 155 -660 175
-16 2 -43 6 -60 9 -16 2 -57 7 -90 11 -33 3 -73 8 -90 11 -33 5 -541 14 -547
9z m-1043 -1605 c92 -21 173 -68 249 -144 59 -60 221 -234 276 -296 15 -17
160 -176 210 -230 14 -15 63 -69 110 -120 47 -51 96 -105 110 -120 14 -15 63
-69 110 -120 47 -51 96 -105 110 -120 14 -15 68 -74 120 -131 126 -138 187
-204 242 -264 26 -27 55 -59 65 -71 10 -12 61 -68 113 -124 52 -57 122 -133
155 -169 33 -36 71 -77 85 -92 14 -15 41 -44 60 -66 19 -21 76 -83 127 -139
l92 -100 68 -2 c90 -3 122 -7 190 -27 285 -83 469 -344 587 -835 14 -58 28
-123 31 -145 3 -22 8 -51 11 -65 7 -38 12 -69 19 -135 4 -33 9 -69 10 -80 10
-82 16 -207 9 -202 -5 3 -49 8 -99 12 -49 4 -101 8 -114 10 -14 3 -54 7 -90
11 -36 3 -68 7 -71 9 -3 2 -26 6 -50 10 -25 3 -52 8 -60 10 -8 2 -29 7 -46 9
-72 13 -276 70 -364 103 -349 130 -527 310 -575 578 -6 39 -11 95 -9 127 l3
56 -107 99 c-58 54 -136 125 -172 158 -36 33 -70 64 -76 70 -6 5 -53 48 -104
95 -51 47 -108 99 -126 115 -17 17 -51 48 -75 69 -24 22 -73 67 -109 100 -93
87 -247 229 -410 376 -57 52 -114 104 -126 115 -11 11 -45 42 -75 69 -30 27
-97 88 -149 137 -52 48 -106 97 -120 109 -14 12 -47 43 -75 69 -27 25 -104 96
-170 156 -328 298 -348 321 -397 447 -26 68 -33 235 -12 303 54 183 190 320
364 369 91 25 162 27 255 6z"/>
<path d="M2076 5119 c-120 -28 -205 -142 -192 -260 11 -92 22 -108 166 -239
52 -47 101 -92 110 -100 14 -13 328 -300 356 -325 6 -5 31 -28 55 -50 24 -22
73 -67 109 -100 36 -33 112 -103 169 -155 57 -52 113 -103 125 -113 12 -10 63
-58 115 -105 52 -48 104 -96 117 -107 12 -11 59 -54 104 -95 46 -41 86 -76 90
-78 4 -1 18 14 32 35 35 53 100 118 148 148 l41 26 -42 47 c-42 46 -214 235
-234 256 -6 6 -104 115 -219 241 -115 127 -217 237 -225 246 -9 9 -50 53 -91
99 -41 46 -91 100 -110 121 -19 20 -71 77 -115 126 -44 48 -107 117 -140 153
-33 36 -78 86 -100 110 -80 88 -107 104 -205 123 -14 2 -43 0 -64 -4z"/>
<path d="M3755 3359 c-53 -27 -100 -79 -120 -133 l-17 -44 38 -35 c22 -19 51
-46 65 -58 14 -13 63 -58 108 -99 45 -41 108 -98 139 -127 l57 -52 20 27 c25
35 82 92 118 117 l27 20 -116 130 c-64 72 -146 163 -182 203 -36 39 -73 72
-82 72 -8 0 -33 -9 -55 -21z"/>
</g>
</svg>
